<svg xmlns="http://www.w3.org/2000/svg" xmlns:svg="http://www.w3.org/2000/svg" width="148" height="96" x="0" y="0" version="1.1" viewBox="0 0 148 96" xml:space="preserve"><g transform="translate(-8.1,-9.5)"><polygon points="8.1 28 58.2 9.5 58.2 105.4 8.1 87" fill="#7986cb"/><polygon points="62.9 9.5 147.4 31.4 147.4 83.5 62.9 105.4" fill="#7986cb"/><path d="m38.5 64.2c-0.6-0-1.2-0-1.7 0.1l-5.5-21.9c2.2-1.5 3.8-4.5 3.8-7.7 0-4.3-2.8-7-6-6.1-3.1 0.9-5.4 4.6-5.4 8.5 0 2.1 0.7 3.9 1.9 5l-9.2 18.9c-0.4-0.2-0.8-0.4-1.2-0.4-1.7-0.1-3 1.9-3 4.3s1.3 4.7 3 4.9c1.2 0.2 2.2-0.7 2.8-2l10.9 5c-0.1 0.7-0.2 1.5-0.2 2.3-0 6.4 4.2 12.8 9.9 14.5 6.3 1.9 12.1-2.8 12.1-10.6 0-7.8-5.7-14.5-12-14.9zm-20.2 2.1c0-0.2 0-0.5 0-0.7 0-1.2-0.3-2.4-0.8-3.2l9.3-19.3c0.7 0.3 1.4 0.4 2.2 0.3 0.3-0 0.6-0.1 0.8-0.2l5.4 21.6c-2.9 1-5.1 3.4-6.1 6.7z" fill="#fff"/><path d="m80.5 87.5c-0.8 0-1.5-0.7-1.5-1.5v-59.2c0-0.8 0.7-1.5 1.5-1.5s1.5 0.7 1.5 1.5v59.2c0 0.8-0.7 1.5-1.5 1.5z" fill="#c5cae9"/><path d="m93.2 85.2c-0.8 0-1.5-0.7-1.5-1.5v-54.8c0-0.8 0.7-1.5 1.5-1.5 0.8 0 1.5 0.7 1.5 1.5v54.8c0 0.8-0.7 1.5-1.5 1.5z" fill="#c5cae9"/><path d="m104.1 83.3c-0.8 0-1.5-0.7-1.5-1.5v-50.9c0-0.8 0.7-1.5 1.5-1.5s1.5 0.7 1.5 1.5v50.9c0 0.8-0.7 1.5-1.5 1.5z" fill="#c5cae9"/><path d="m113.5 81.8c-0.8 0-1.5-0.7-1.5-1.5v-47.6c0-0.8 0.7-1.5 1.5-1.5s1.5 0.7 1.5 1.5v47.6c0 0.8-0.7 1.5-1.5 1.5z" fill="#c5cae9"/><path d="m121.8 80.4c-0.8 0-1.5-0.7-1.5-1.5v-44.6c0-0.8 0.7-1.5 1.5-1.5s1.5 0.7 1.5 1.5v44.6c0 0.8-0.7 1.5-1.5 1.5z" fill="#c5cae9"/><path d="m129.1 79.1c-0.8 0-1.5-0.7-1.5-1.5v-42c0-0.8 0.7-1.5 1.5-1.5 0.8 0 1.5 0.7 1.5 1.5v42c0 0.8-0.7 1.5-1.5 1.5z" fill="#c5cae9"/><path d="m135.7 78c-0.8 0-1.5-0.7-1.5-1.5v-39.7c0-0.8 0.7-1.5 1.5-1.5 0.8 0 1.5 0.7 1.5 1.5v39.7c0 0.8-0.7 1.5-1.5 1.5z" fill="#c5cae9"/><path d="m141.5 77c-0.8 0-1.5-0.7-1.5-1.5v-37.7c0-0.8 0.7-1.5 1.5-1.5 0.8 0 1.5 0.7 1.5 1.5v37.7c0 0.8-0.7 1.5-1.5 1.5z" fill="#c5cae9"/></g></svg>
